<svg version="1.1" id="Layer_1" xmlns="http://www.w3.org/2000/svg" xmlns:xlink="http://www.w3.org/1999/xlink" x="0px" y="0px"
	 width="100%" viewBox="0 0 500 500" enable-background="new 0 0 500 500" xml:space="preserve">
<path fill="#000000" opacity="1.000000" stroke="none" 
	d="
M272.000000,501.000000 
	C181.333359,501.000000 91.166710,501.000000 1.000048,501.000000 
	C1.000032,334.333405 1.000032,167.666794 1.000016,1.000138 
	C167.666565,1.000092 334.333130,1.000092 500.999756,1.000046 
	C500.999847,167.666519 500.999847,334.333038 500.999939,500.999786 
	C424.833344,501.000000 348.666656,501.000000 272.000000,501.000000 
M131.853485,233.224213 
	C131.853485,233.224213 131.469040,233.027512 131.467270,232.694458 
	C131.381424,232.464554 131.217743,232.327744 130.795914,231.573349 
	C129.054825,229.074768 127.313721,226.576202 125.501175,223.502655 
	C124.884644,222.565094 124.268112,221.627518 123.724388,220.445618 
	C123.724388,220.445618 123.509483,220.308472 123.286240,219.684036 
	C117.575912,210.235626 111.198685,201.400528 101.287415,195.445435 
	C100.967659,195.203720 100.647896,194.962006 99.948387,194.064102 
	C99.728493,193.939575 99.508598,193.815033 99.218330,193.152054 
	C94.942390,191.431671 93.014313,192.749756 93.344734,197.463501 
	C93.542191,200.280396 93.359596,203.123260 93.364685,205.954422 
	C93.409019,230.594742 93.457176,255.235046 93.314415,280.762177 
	C93.299751,282.402771 92.684059,284.391693 93.392105,285.613434 
	C95.002785,288.392639 91.961426,292.567841 97.039742,294.668304 
	C100.512924,294.706757 104.023216,295.060120 107.444366,294.656982 
	C109.280693,294.440613 110.963867,292.924469 112.907967,291.075745 
	C112.614006,283.710083 112.320045,276.344421 111.999710,268.520905 
	C111.999710,268.520905 112.055550,268.065674 112.749870,267.553314 
	C112.597649,258.109650 112.445427,248.665970 112.696953,238.782944 
	C112.757263,238.593414 112.817581,238.403870 113.574478,238.572784 
	C121.452904,250.302109 129.331329,262.031433 137.433578,274.444275 
	C139.314346,277.183563 141.195099,279.922821 142.869843,282.716705 
	C142.869843,282.716705 143.017654,282.813019 143.017654,282.813019 
	C143.017654,282.813019 142.881180,282.606415 143.263412,283.552307 
	C143.480408,283.814117 143.697403,284.075958 144.039841,284.214569 
	C144.039841,284.214569 143.784927,284.182343 144.462769,285.127380 
	C144.730988,285.407288 144.999207,285.687195 145.163223,286.566437 
	C147.844193,292.666199 151.979172,296.209412 159.142532,294.809448 
	C160.719635,294.501221 162.457077,295.012054 164.033600,294.702393 
	C165.292145,294.455200 166.418304,293.533997 167.999420,292.180939 
	C168.000519,287.506592 168.001617,282.832275 168.268539,277.375519 
	C168.426819,271.235291 168.585114,265.095093 168.904617,258.131775 
	C169.072144,253.485809 169.239685,248.839828 169.669800,243.364441 
	C169.726974,242.205902 169.784134,241.047348 170.051559,239.726379 
	C170.051559,239.726379 169.974167,239.472229 170.324799,238.834930 
	C170.270660,232.371841 170.216537,225.908737 170.687256,218.698639 
	C170.690704,218.095795 170.694138,217.492935 170.858948,216.493134 
	C170.908585,216.191681 170.841568,215.918808 170.700638,215.630630 
	C170.700638,215.630630 170.668915,215.578247 170.820953,214.847839 
	C171.125580,208.578934 171.515076,202.312241 171.677734,196.039658 
	C171.720703,194.382629 171.064148,192.707474 170.728806,191.040649 
	C168.848572,191.751648 166.414871,191.946320 165.185303,193.264313 
	C160.246780,198.557968 155.681061,204.199402 150.976761,209.612808 
	C150.976761,209.612808 151.000473,209.606430 150.533936,210.397110 
	C150.515915,213.263107 150.497910,216.129105 150.291229,219.890442 
	C150.376495,224.576645 150.461761,229.262863 150.312836,234.788986 
	C150.364822,236.524521 150.416809,238.260071 150.258911,240.911346 
	C150.253754,244.732574 150.402191,248.562531 150.186005,252.371780 
	C150.055786,254.666290 149.358124,256.928589 148.767029,258.517700 
	C146.850067,256.033020 144.933105,253.548370 142.861572,250.355667 
	C139.510330,245.221985 136.159073,240.088318 132.575958,234.251984 
	C132.396469,234.082825 132.216965,233.913666 132.221237,233.704987 
	C132.221237,233.704987 131.981232,233.636719 131.853485,233.224213 
M226.955063,289.438538 
	C226.955063,289.438538 227.032379,289.552338 227.442398,288.699799 
	C227.376556,287.455078 227.310730,286.210388 227.426270,284.220917 
	C227.095032,281.876373 226.763809,279.531860 226.513031,277.756805 
	C220.718536,279.508514 215.472977,281.685638 210.015137,282.611847 
	C200.786804,284.177887 194.079834,278.886658 193.294495,269.404846 
	C206.393051,269.404846 219.435410,269.404846 232.727737,269.404846 
	C232.727737,265.700378 232.727737,262.898926 232.795456,259.262695 
	C232.071808,256.169830 231.348160,253.076950 230.632584,249.283249 
	C224.687820,228.983444 198.380463,226.254822 186.362915,237.296890 
	C183.586578,240.928345 180.080276,244.218643 178.189590,248.264038 
	C174.530914,256.092285 173.672714,264.488403 176.255798,273.747131 
	C178.738937,278.255463 181.222061,282.763794 183.866791,287.738190 
	C184.238144,288.038544 184.609482,288.338867 185.320679,289.167053 
	C186.664627,289.799072 188.056137,290.347046 189.345093,291.076294 
	C201.621353,298.021484 213.813644,297.572144 226.398849,290.711304 
	C226.707581,290.538361 226.810699,290.282501 226.976929,289.727142 
	C226.976929,289.727142 227.011398,289.383667 226.955063,289.438538 
M291.213898,241.073776 
	C291.213898,241.073776 291.172150,241.351929 291.510132,240.711029 
	C291.549347,240.472717 291.588593,240.234406 292.281494,239.754807 
	C294.008789,237.763733 295.736084,235.772659 298.195831,232.937286 
	C294.593842,232.779068 292.481873,232.772583 290.387115,232.579529 
	C280.627960,231.680099 272.438751,233.686264 266.894775,242.950623 
	C264.391083,247.134476 260.275543,250.353790 256.897980,253.081009 
	C256.818146,248.719940 256.738281,244.358856 256.824036,239.093018 
	C256.752380,235.719528 256.680725,232.346024 256.779419,228.074860 
	C256.720032,224.718658 256.660675,221.362442 256.790131,217.098007 
	C256.492859,214.411240 256.195618,211.724472 255.356400,208.709671 
	C250.549118,208.815735 245.741852,208.921799 240.366730,209.214157 
	C240.209641,210.504944 239.917526,211.795547 239.915817,213.086548 
	C239.892303,230.838684 239.909912,248.590897 239.914963,266.343079 
	C239.917603,275.593719 239.915436,284.844391 239.915436,295.031586 
	C245.910660,294.619934 251.377472,294.244568 257.300842,293.228638 
	C257.277039,292.715851 257.253235,292.203094 257.456482,290.821777 
	C257.396515,285.022736 257.336548,279.223724 257.557648,272.611664 
	C257.890656,271.654114 258.223663,270.696564 258.743408,269.202026 
	C261.163971,272.155029 263.123199,274.545197 265.114502,277.568390 
	C266.101929,278.600800 267.089325,279.633240 268.350098,281.323151 
	C271.254913,285.069672 274.104431,288.861389 277.103149,292.531158 
	C277.858398,293.455414 279.085632,294.593567 280.105469,294.602997 
	C285.994080,294.657410 291.885590,294.402893 298.213043,294.515198 
	C299.076324,290.240173 295.306824,289.115417 293.074921,286.905273 
	C293.074921,286.905273 293.050720,286.867340 292.884277,286.204559 
	C287.144073,278.949402 281.489990,271.623444 275.616699,264.477692 
	C273.579803,261.999542 273.159393,260.272156 275.767273,257.847961 
	C278.516937,255.292007 280.753296,252.183899 283.173065,249.296875 
	C283.173065,249.296875 283.217285,249.293137 283.767548,249.104401 
	C284.332153,248.366119 284.896790,247.627853 285.787506,246.792099 
	C285.787506,246.792099 285.916748,246.477264 286.496582,246.366562 
	C287.691284,244.835861 288.885986,243.305145 290.691467,241.542328 
	C290.883972,241.440445 291.076477,241.338547 291.213898,241.073776 
M304.462830,285.346344 
	C304.462830,285.346344 304.653595,285.543121 304.653595,285.543121 
	C304.653595,285.543121 304.925507,285.506866 305.088928,285.835754 
	C305.088928,285.835754 305.426788,285.979706 305.663177,286.549866 
	C315.654022,295.691498 327.558685,297.018341 340.093597,294.352509 
	C346.587555,292.971466 352.393616,289.752319 356.953613,283.716736 
	C357.242157,283.141327 357.530701,282.565887 358.535217,281.614258 
	C358.667480,281.379333 358.799744,281.144409 359.328369,280.533478 
	C360.635193,275.005005 361.942017,269.476501 363.511597,263.120148 
	C362.692017,258.733154 361.872437,254.346146 361.010986,249.341751 
	C359.099701,246.475433 357.640320,243.130707 355.199371,240.825180 
	C344.323700,230.552856 331.407745,227.750046 317.362396,232.582993 
	C310.553497,234.925903 304.024902,238.512161 300.574646,246.432678 
	C300.069702,247.445969 299.564728,248.459259 298.866943,249.432785 
	C298.866943,249.432785 299.017914,249.646957 298.608002,250.597733 
	C298.447693,251.268585 298.287384,251.939438 297.628967,253.087097 
	C296.012482,261.909424 294.800171,270.690063 300.377869,279.455139 
	C301.592133,281.154053 302.806396,282.852966 304.173889,284.901489 
	C304.173889,284.901489 304.513275,285.076141 304.462830,285.346344 
M388.931488,255.965302 
	C388.945374,249.667191 389.081177,243.364975 388.868958,237.074493 
	C388.827118,235.833908 387.382080,233.555908 386.690155,233.595779 
	C381.725342,233.881821 376.787933,234.643143 371.447052,235.745850 
	C371.417236,253.491577 371.425812,271.237518 371.323151,288.982819 
	C371.304047,292.281616 371.565674,295.876495 370.370483,298.790314 
	C369.201019,301.641296 366.687012,305.301788 364.131561,305.897461 
	C360.492371,306.745758 359.409576,307.880096 359.552856,311.270721 
	C359.643127,313.407013 358.990967,315.595337 359.233826,317.695282 
	C359.343811,318.645966 360.820099,319.438599 362.606750,320.594086 
	C365.193604,320.522583 367.780426,320.451050 370.739777,320.605927 
	C371.074066,320.680054 371.325470,320.567688 372.134857,320.630066 
	C372.783813,320.409363 373.432800,320.188690 374.568939,320.051971 
	C375.648102,319.572418 376.727234,319.092896 378.494537,318.633484 
	C383.370270,315.845490 386.785553,311.824615 387.146637,306.140930 
	C387.849060,295.084290 388.135864,284.001282 388.881531,272.052490 
	C388.854828,266.994720 388.828125,261.936981 388.931488,255.965302 
M418.190094,292.476562 
	C418.190094,273.102356 418.190094,253.728134 418.190094,233.594162 
	C412.035400,234.165619 406.559509,234.674057 400.751770,235.699188 
	C400.751770,255.207123 400.751770,274.715057 400.751770,294.700562 
	C405.161316,294.700562 408.949341,294.865295 412.711945,294.627563 
	C414.460693,294.517090 416.160004,293.624664 418.190094,292.476562 
M374.219421,208.629501 
	C370.303894,212.900665 369.669556,217.372330 372.457458,221.050171 
	C375.226105,224.702606 380.940552,225.975052 385.044220,223.852966 
	C389.016388,221.798889 390.565643,217.658875 389.173218,212.818909 
	C387.587219,207.305908 381.095215,205.239624 374.219421,208.629501 
M410.156433,207.135620 
	C406.118591,206.996826 401.856018,207.813721 400.778320,211.885590 
	C399.969025,214.943314 400.605316,219.179932 402.243042,221.901932 
	C404.682434,225.956192 409.426697,225.578995 413.446625,224.157425 
	C416.808868,222.968430 418.469666,220.201965 418.396149,216.387543 
	C418.297668,211.280487 415.578430,208.546219 410.156433,207.135620 
z"/>
<path fill="#0C60F3" opacity="1.000000" stroke="none" 
	d="
M388.594849,272.929199 
	C388.135864,284.001282 387.849060,295.084290 387.146637,306.140930 
	C386.785553,311.824615 383.370270,315.845490 377.905182,318.547852 
	C376.237823,318.964142 375.159790,319.466095 374.081757,319.968018 
	C373.432800,320.188690 372.783813,320.409363 371.621582,320.438416 
	C370.853973,320.250305 370.606964,320.294586 370.367279,320.379547 
	C367.780426,320.451050 365.193604,320.522583 362.098389,320.190735 
	C361.495087,315.653046 359.741486,310.944977 365.548492,308.924683 
	C371.754822,306.765533 373.955017,302.118866 373.984863,295.813904 
	C374.049988,282.045227 374.147217,282.045685 387.760345,282.742706 
	C387.921387,279.497009 388.082916,276.241791 388.331665,272.979034 
	C388.418884,272.971497 388.594818,272.929199 388.594849,272.929199 
z"/>
<path fill="#604AF5" opacity="1.000000" stroke="none" 
	d="
M301.108856,246.002243 
	C304.024902,238.512161 310.553497,234.925903 317.362396,232.582993 
	C331.407745,227.750046 344.323700,230.552856 355.199371,240.825180 
	C357.640320,243.130707 359.099701,246.475433 360.770386,249.513245 
	C355.279816,246.181412 350.154205,242.078018 343.455963,246.748718 
	C342.865692,247.160324 341.832214,246.936310 340.688416,246.809845 
	C334.792908,244.078232 329.064575,243.213150 322.672729,245.052216 
	C315.204468,245.357727 308.156647,245.679977 301.108856,246.002243 
z"/>
<path fill="#7049FA" opacity="1.000000" stroke="none" 
	d="
M125.572617,224.077621 
	C127.313721,226.576202 129.054825,229.074768 130.949036,232.063812 
	C131.202682,232.728882 131.324982,232.886642 131.469040,233.027512 
	C131.469040,233.027512 131.853485,233.224213 131.918762,233.452179 
	C131.984024,233.680161 132.037476,233.744507 132.037476,233.744507 
	C132.216965,233.913666 132.396469,234.082825 132.755539,234.902527 
	C133.876968,237.932465 132.962692,239.283066 130.520569,238.918869 
	C126.001160,238.244843 121.326302,237.780960 117.107384,236.191330 
	C113.813629,234.950287 111.763367,234.138519 108.953690,237.263306 
	C105.271515,241.358459 97.964600,241.360382 94.998985,237.528198 
	C95.215385,231.731049 95.459694,226.398666 96.187744,221.050873 
	C105.617485,220.793152 114.563484,220.550812 123.509483,220.308472 
	C123.509483,220.308472 123.724388,220.445618 123.615044,220.871445 
	C124.194672,222.224060 124.883644,223.150833 125.572617,224.077621 
z"/>
<path fill="#0C60F3" opacity="1.000000" stroke="none" 
	d="
M357.819244,281.990479 
	C357.530701,282.565887 357.242157,283.141327 356.369995,283.965485 
	C353.561340,285.659698 351.318115,287.078033 349.114502,288.555420 
	C340.110596,294.591888 330.290558,295.829498 320.133362,292.655609 
	C315.033752,291.062103 310.316803,288.244019 305.426788,285.979706 
	C305.426788,285.979706 305.088928,285.835754 304.965942,285.577484 
	C304.842926,285.319214 304.513275,285.076141 304.513275,285.076141 
	C304.513275,285.076141 304.173889,284.901489 304.077087,284.401978 
	C303.624023,282.624023 303.267761,281.345581 303.199432,279.913849 
	C305.502411,279.366028 307.526428,279.011780 309.530121,278.566223 
	C311.725952,278.077972 313.903015,277.505463 316.318115,277.196106 
	C317.670349,277.979401 318.792664,278.536285 320.066040,279.407471 
	C323.346405,283.637054 327.764069,282.887329 332.257446,283.164917 
	C334.901611,282.973785 337.230530,282.473328 339.586029,282.220245 
	C341.621094,282.001587 343.686188,282.030212 345.738434,282.017334 
	C346.693146,282.011322 347.650055,282.247040 348.603912,282.232849 
	C351.676208,282.187225 354.747528,282.076233 357.819244,281.990479 
z"/>
<path fill="#7739F3" opacity="1.000000" stroke="none" 
	d="
M123.397858,219.996246 
	C114.563484,220.550812 105.617485,220.793152 96.195053,220.574615 
	C95.716591,219.286804 95.744110,218.458588 95.707825,217.633163 
	C95.446884,211.697113 94.861595,205.751480 95.054626,199.830917 
	C95.133148,197.422485 92.770546,192.121506 99.288696,193.690491 
	C99.508598,193.815033 99.728493,193.939575 100.200317,194.513855 
	C100.739296,195.239609 101.026352,195.515625 101.313400,195.791641 
	C111.198685,201.400528 117.575912,210.235626 123.397858,219.996246 
z"/>
<path fill="#2A57EE" opacity="1.000000" stroke="none" 
	d="
M388.244415,272.986572 
	C388.082916,276.241791 387.921387,279.497009 387.760345,282.742706 
	C374.147217,282.045685 374.049988,282.045227 373.984863,295.813904 
	C373.955017,302.118866 371.754822,306.765533 365.548492,308.924683 
	C359.741486,310.944977 361.495087,315.653046 361.633301,320.045166 
	C360.820099,319.438599 359.343811,318.645966 359.233826,317.695282 
	C358.990967,315.595337 359.643127,313.407013 359.552856,311.270721 
	C359.409576,307.880096 360.492371,306.745758 364.131561,305.897461 
	C366.687012,305.301788 369.201019,301.641296 370.370483,298.790314 
	C371.565674,295.876495 371.304047,292.281616 371.323151,288.982819 
	C371.425812,271.237518 371.417236,253.491577 371.708069,235.851990 
	C372.062866,241.237747 372.156647,246.517380 372.176605,252.274414 
	C372.102814,256.772949 372.102814,260.794067 372.102814,265.479797 
	C374.109833,264.529205 375.221741,263.917389 376.394135,263.460938 
	C384.710724,260.222992 387.763519,262.211884 388.070862,271.021118 
	C388.093781,271.677460 388.184967,272.331482 388.244415,272.986572 
z"/>
<path fill="#604AF5" opacity="1.000000" stroke="none" 
	d="
M95.026894,237.992966 
	C97.964600,241.360382 105.271515,241.358459 108.953690,237.263306 
	C111.763367,234.138519 113.813629,234.950287 117.107384,236.191330 
	C121.326302,237.780960 126.001160,238.244843 130.520569,238.918869 
	C132.962692,239.283066 133.876968,237.932465 132.871475,235.253860 
	C136.159073,240.088318 139.510330,245.221985 142.670761,250.839630 
	C140.522766,250.588806 138.125244,248.745621 136.686981,249.317017 
	C131.341461,251.440689 126.927948,250.229294 122.601860,247.089493 
	C122.262947,246.843491 121.625916,247.008240 120.937271,246.698761 
	C118.841179,243.610138 116.982170,240.770035 114.962334,238.049301 
	C114.741791,237.752213 113.595047,238.142746 112.877899,238.214340 
	C112.817581,238.403870 112.757263,238.593414 112.396576,239.372589 
	C111.922012,247.647919 111.747826,255.333603 111.463997,262.699341 
	C111.219940,261.259491 111.085518,260.139557 110.972885,258.582031 
	C110.946686,256.334534 111.212448,254.437653 110.743057,252.744614 
	C110.417137,251.569046 109.216980,249.965942 108.173073,249.763779 
	C98.537888,247.897736 95.955070,250.145676 95.762299,260.000763 
	C95.533920,260.029724 95.078064,260.094421 94.882637,259.720276 
	C94.800438,252.228409 94.913666,245.110687 95.026894,237.992966 
z"/>
<path fill="#604AF5" opacity="1.000000" stroke="none" 
	d="
M187.013641,237.205383 
	C198.380463,226.254822 224.687820,228.983444 230.352234,249.562180 
	C229.369019,249.549957 228.666168,249.258804 227.869659,248.627609 
	C225.288849,244.336777 221.854111,244.427612 217.720764,246.007935 
	C216.907288,246.005066 216.442291,246.006088 215.751083,245.726593 
	C214.666382,244.976166 213.856949,244.351303 212.941452,244.061401 
	C206.759171,242.103668 200.691315,242.173843 194.434692,244.274139 
	C191.288376,245.330322 187.493530,247.159103 184.364212,243.709869 
	C185.302414,241.406525 186.158035,239.305954 187.013641,237.205383 
z"/>
<path fill="#7739F3" opacity="1.000000" stroke="none" 
	d="
M150.479889,218.995102 
	C150.497910,216.129105 150.515915,213.263107 150.745819,210.012756 
	C150.957687,209.628403 150.977539,209.712296 150.977539,209.712296 
	C155.681061,204.199402 160.246780,198.557968 165.185303,193.264313 
	C166.414871,191.946320 168.848572,191.751648 170.728790,191.040649 
	C171.064148,192.707474 171.720703,194.382629 171.677734,196.039658 
	C171.515076,202.312241 171.125580,208.578934 170.367676,215.376114 
	C163.926880,220.019958 157.444763,221.025284 150.479889,218.995102 
z"/>
<path fill="#2A57EE" opacity="1.000000" stroke="none" 
	d="
M183.705185,287.272125 
	C181.222061,282.763794 178.738937,278.255463 176.378128,273.089294 
	C176.701752,271.591980 176.903046,270.752441 177.523193,269.937195 
	C182.872330,269.408356 187.793381,268.747406 192.734833,268.325012 
	C202.429550,267.496460 212.138687,266.237854 221.835663,266.290894 
	C226.577530,266.316864 229.447678,265.487885 231.165741,260.875244 
	C231.810059,260.499237 232.268906,260.298340 232.727737,260.097473 
	C232.727737,262.898926 232.727737,265.700378 232.727737,269.404846 
	C219.435410,269.404846 206.393051,269.404846 193.294495,269.404846 
	C194.079834,278.886658 200.786804,284.177887 210.015137,282.611847 
	C215.472977,281.685638 220.718536,279.508514 226.513031,277.756805 
	C226.763809,279.531860 227.095032,281.876373 227.097519,284.407532 
	C225.315796,283.879944 223.308640,282.159363 222.495544,282.607117 
	C214.324310,287.106720 206.191498,284.475342 197.784531,282.737457 
	C193.367477,277.268188 188.061127,275.896240 180.595764,278.569916 
	C181.712402,281.222351 182.901123,284.046051 183.993988,286.970642 
	C183.898132,287.071503 183.705185,287.272125 183.705185,287.272125 
z"/>
<path fill="#0C60F3" opacity="1.000000" stroke="none" 
	d="
M198.029221,282.964569 
	C206.191498,284.475342 214.324310,287.106720 222.495544,282.607117 
	C223.308640,282.159363 225.315796,283.879944 227.006836,284.779907 
	C227.310730,286.210388 227.376556,287.455078 227.241623,289.098511 
	C227.040848,289.497223 227.011398,289.383667 227.011398,289.383667 
	C227.011398,289.383667 226.976929,289.727142 226.696304,289.946899 
	C226.231659,290.331604 226.077652,290.520996 225.953659,290.734772 
	C213.813644,297.572144 201.621353,298.021484 189.345093,291.076294 
	C188.056137,290.347046 186.664627,289.799072 185.155487,288.631897 
	C184.977722,287.732849 184.965134,287.368958 185.332977,286.966827 
	C189.818680,285.607269 193.923950,284.285919 198.029221,282.964569 
z"/>
<path fill="#4549EB" opacity="1.000000" stroke="none" 
	d="
M177.104340,269.912933 
	C176.903046,270.752441 176.701752,271.591980 176.332520,272.710327 
	C173.672714,264.488403 174.530914,256.092285 178.189590,248.264038 
	C180.080276,244.218643 183.586578,240.928345 186.688278,237.251129 
	C186.158035,239.305954 185.302414,241.406525 184.364212,243.709869 
	C187.493530,247.159103 191.288376,245.330322 194.434692,244.274139 
	C200.691315,242.173843 206.759171,242.103668 212.941452,244.061401 
	C213.856949,244.351303 214.666382,244.976166 215.676910,246.069214 
	C215.491653,247.563675 215.154373,248.434982 214.504150,249.142303 
	C211.686905,247.537857 209.309006,245.198563 206.654648,244.825333 
	C198.667328,243.702225 194.809601,247.438477 193.363953,257.195190 
	C200.560989,257.620789 207.425842,257.890228 214.289215,257.856781 
	C215.022537,257.853241 215.747238,256.081848 216.282715,254.792358 
	C215.712448,252.963791 215.335434,251.473404 215.286713,250.109467 
	C216.730896,253.144501 217.846756,256.053101 218.582520,259.125671 
	C207.818085,259.978424 197.425247,261.487854 187.194427,257.924133 
	C180.038330,255.431442 176.450378,258.347260 176.956924,265.924957 
	C177.045609,267.251648 177.057175,268.583466 177.104340,269.912933 
z"/>
<path fill="#3449E2" opacity="1.000000" stroke="none" 
	d="
M257.229431,291.690308 
	C257.253235,292.203094 257.277039,292.715851 256.897827,293.275208 
	C256.353302,290.533447 256.211792,287.745148 256.076477,284.493164 
	C256.062073,279.700714 256.178619,275.364227 255.936508,271.047882 
	C255.864700,269.767426 255.039368,267.714874 254.122375,267.431885 
	C249.168823,265.903198 242.330627,267.220612 242.029037,274.433258 
	C241.855255,278.589417 241.943649,282.756531 241.785950,287.256226 
	C241.313644,289.147644 240.969421,290.701538 240.625198,292.255432 
	C240.498993,292.237030 240.372772,292.218628 240.246567,292.200226 
	C240.246567,282.393250 240.246567,272.586273 240.529846,262.830780 
	C241.194321,262.922913 241.575516,262.963593 241.995209,263.326172 
	C242.371597,264.178345 242.749237,265.191376 243.041473,265.167328 
	C248.239456,264.739319 253.417831,263.938171 258.620087,263.744324 
	C262.159149,263.612427 265.599518,260.243317 269.312744,263.313568 
	C269.539185,263.500793 270.919800,262.820892 271.262665,262.245911 
	C272.656342,259.908691 273.854614,257.454987 275.428955,254.920837 
	C278.226624,252.970612 280.720245,251.143799 283.213898,249.317017 
	C280.753296,252.183899 278.516937,255.292007 275.767273,257.847961 
	C273.159393,260.272156 273.579803,261.999542 275.616699,264.477692 
	C281.489990,271.623444 287.144073,278.949402 292.631836,286.488953 
	C289.594971,284.192047 286.810547,281.610718 283.885437,278.830017 
	C283.535461,278.378510 283.293823,278.162689 283.019226,277.977905 
	C283.018646,277.972687 283.022675,277.958160 282.855103,277.673553 
	C280.401550,272.653717 275.925964,271.641510 271.385895,270.919434 
	C269.394836,270.602783 267.323914,270.788269 265.289276,270.745758 
	C265.309631,272.729431 265.329956,274.713135 265.283020,276.756104 
	C265.215729,276.815369 265.082428,276.935394 265.082428,276.935394 
	C263.123199,274.545197 261.163971,272.155029 258.743408,269.202026 
	C258.223663,270.696564 257.890656,271.654114 257.408569,273.390076 
	C257.249481,280.009094 257.239471,285.849701 257.229431,291.690308 
z"/>
<path fill="#4549EB" opacity="1.000000" stroke="none" 
	d="
M113.226189,238.393555 
	C113.595047,238.142746 114.741791,237.752213 114.962334,238.049301 
	C116.982170,240.770035 118.841179,243.610138 121.091583,246.992676 
	C122.904350,249.759354 124.065460,252.266861 125.919289,254.057022 
	C128.194702,256.254242 131.653931,259.883392 133.537918,259.322327 
	C138.870926,257.734192 143.774200,257.742676 148.915466,259.205383 
	C149.358124,256.928589 150.055786,254.666290 150.186005,252.371780 
	C150.402191,248.562531 150.253754,244.732574 150.653793,240.658539 
	C151.371643,242.949066 151.694611,245.492401 152.014282,248.493240 
	C152.010986,252.664230 152.010986,256.377716 152.010986,260.330597 
	C157.317841,259.147705 161.563034,258.077301 165.866135,257.348785 
	C166.710388,257.205841 167.778519,258.385315 168.743393,258.954865 
	C168.585114,265.095093 168.426819,271.235291 168.081512,277.507141 
	C167.564560,276.067749 167.234650,274.496735 166.936096,272.527374 
	C166.553223,269.592651 166.976334,265.722351 165.537125,264.818970 
	C163.113388,263.297638 159.308945,262.764893 156.437393,263.402405 
	C148.792862,265.099579 141.248825,265.552551 133.214157,264.097534 
	C134.682953,267.410370 136.064972,270.527496 137.392380,273.683289 
	C137.337784,273.721924 137.209763,273.760773 137.209763,273.760773 
	C129.331329,262.031433 121.452904,250.302109 113.226189,238.393555 
M149.462875,261.506653 
	C149.462875,261.506653 149.510803,261.488251 149.462875,261.506653 
z"/>
<path fill="#4549EB" opacity="1.000000" stroke="none" 
	d="
M283.193481,249.306931 
	C280.720245,251.143799 278.226624,252.970612 275.091827,254.714478 
	C269.829346,253.281265 265.465912,252.992813 261.215240,256.170868 
	C260.138702,256.975708 257.794556,256.085052 256.086670,255.706772 
	C256.390747,254.963593 256.641022,254.487152 256.891296,254.010712 
	C260.275543,250.353790 264.391083,247.134476 266.894775,242.950623 
	C272.438751,233.686264 280.627960,231.680099 290.387115,232.579529 
	C292.481873,232.772583 294.593842,232.779068 298.195831,232.937286 
	C295.736084,235.772659 294.008789,237.763733 291.743591,239.758179 
	C291.725220,238.400406 292.244751,237.039276 292.759216,235.676102 
	C285.881775,229.739090 274.079376,234.289978 270.733978,244.778076 
	C276.263245,244.486053 281.555969,244.206528 286.760468,244.185883 
	C286.420410,245.122269 286.168579,245.799759 285.916748,246.477264 
	C285.916748,246.477264 285.787506,246.792099 285.327148,246.901276 
	C284.316956,247.771362 283.767120,248.532257 283.217285,249.293152 
	C283.217285,249.293137 283.173065,249.296875 283.193481,249.306931 
z"/>
<path fill="#7739F3" opacity="1.000000" stroke="none" 
	d="
M374.537018,208.445526 
	C381.095215,205.239624 387.587219,207.305908 389.173218,212.818909 
	C390.565643,217.658875 389.016388,221.798889 385.044220,223.852966 
	C380.940552,225.975052 375.226105,224.702606 372.457458,221.050171 
	C369.669556,217.372330 370.303894,212.900665 374.537018,208.445526 
z"/>
<path fill="#205CF8" opacity="1.000000" stroke="none" 
	d="
M166.904724,272.925751 
	C167.234650,274.496735 167.564560,276.067749 167.948593,277.898315 
	C168.001617,282.832275 168.000519,287.506592 167.672333,292.193970 
	C167.047821,290.412628 166.787659,288.611145 166.446152,286.825165 
	C165.297394,280.817535 163.965927,279.999603 158.108414,281.570984 
	C156.851532,281.908173 155.283417,282.730164 154.335388,282.293610 
	C149.840515,280.223602 146.703659,280.808899 145.267441,285.967102 
	C144.999207,285.687195 144.730988,285.407288 144.156128,284.670593 
	C143.849487,284.213776 143.914398,284.337769 143.914398,284.337769 
	C143.697403,284.075958 143.480408,283.814117 143.088562,283.113007 
	C142.913696,282.673706 143.075867,282.662109 143.075867,282.662109 
	C141.195099,279.922821 139.314346,277.183563 137.321671,274.102539 
	C137.209763,273.760773 137.337784,273.721924 137.778549,273.769958 
	C140.016815,273.661255 141.816177,273.523102 143.611511,273.344635 
	C151.365005,272.573853 159.080429,269.755829 166.904724,272.925751 
z"/>
<path fill="#7739F3" opacity="1.000000" stroke="none" 
	d="
M410.549683,207.199188 
	C415.578430,208.546219 418.297668,211.280487 418.396149,216.387543 
	C418.469666,220.201965 416.808868,222.968430 413.446625,224.157425 
	C409.426697,225.578995 404.682434,225.956192 402.243042,221.901932 
	C400.605316,219.179932 399.969025,214.943314 400.778320,211.885590 
	C401.856018,207.813721 406.118591,206.996826 410.549683,207.199188 
z"/>
<path fill="#0C60F3" opacity="1.000000" stroke="none" 
	d="
M284.026154,279.029419 
	C286.810547,281.610718 289.594971,284.192047 292.715027,286.820343 
	C293.050720,286.867340 293.074921,286.905273 293.116699,287.267822 
	C294.697693,289.837891 296.236908,292.045441 297.776093,294.252960 
	C291.885590,294.402893 285.994080,294.657410 280.105469,294.602997 
	C279.085632,294.593567 277.858398,293.455414 277.103149,292.531158 
	C274.104431,288.861389 271.254913,285.069672 268.293579,280.801117 
	C268.237030,280.279083 268.349792,279.875336 268.679169,279.823181 
	C273.725555,279.519379 278.637787,280.777069 283.022675,277.958160 
	C283.022675,277.958160 283.018646,277.972687 283.168579,278.168945 
	C283.533264,278.609131 283.769165,278.830536 284.026154,279.029419 
z"/>
<path fill="#4B52F6" opacity="1.000000" stroke="none" 
	d="
M401.083618,235.182495 
	C406.559509,234.674057 412.035400,234.165619 418.190094,233.594162 
	C418.190094,253.728134 418.190094,273.102356 418.011169,292.743469 
	C417.832214,293.010376 417.753601,292.953430 417.875305,292.616882 
	C417.980225,288.362091 417.963440,284.443817 417.971191,280.087311 
	C418.008911,277.822266 418.125641,275.989166 418.015625,274.169800 
	C417.696838,268.897064 417.735931,263.548248 416.796875,258.381561 
	C415.674469,252.206268 410.093933,255.031036 406.462555,254.564011 
	C405.542633,254.445694 403.669250,257.871796 403.080536,259.913330 
	C402.084991,263.365723 401.764313,267.012695 401.130096,270.136719 
	C401.352997,261.207458 401.605682,252.719391 402.288300,244.171555 
	C406.587006,243.787888 410.554688,243.860123 414.272827,242.932373 
	C415.635315,242.592422 417.175385,239.883072 417.176178,238.253876 
	C417.176697,237.174026 414.675507,235.342865 413.137634,235.159241 
	C409.217316,234.691116 405.209167,234.958282 401.210663,235.001709 
	C401.185150,235.072174 401.083618,235.182480 401.083618,235.182495 
z"/>
<path fill="#604AF5" opacity="1.000000" stroke="none" 
	d="
M372.250397,251.796997 
	C372.156647,246.517380 372.062866,241.237747 371.905457,235.605835 
	C376.787933,234.643143 381.725342,233.881821 386.690155,233.595779 
	C387.382080,233.555908 388.827118,235.833908 388.868958,237.074493 
	C389.081177,243.364975 388.945374,249.667191 388.705627,256.087036 
	C388.513397,251.027893 385.782196,249.162872 380.920532,250.017273 
	C378.015930,250.527710 375.139496,251.198364 372.250397,251.796997 
z"/>
<path fill="#7049FA" opacity="1.000000" stroke="none" 
	d="
M150.385559,219.442780 
	C157.444763,221.025284 163.926880,220.019958 170.291656,215.741318 
	C170.668915,215.578247 170.700638,215.630630 170.628632,215.855850 
	C170.527069,216.364090 170.574066,216.633759 170.697586,216.890091 
	C170.694138,217.492935 170.690704,218.095795 170.374878,219.431946 
	C170.033066,226.600906 170.003616,233.036575 169.974152,239.472229 
	C169.974167,239.472229 170.051559,239.726379 169.776184,239.481644 
	C169.487289,234.363876 167.379547,232.876938 162.436127,233.830032 
	C158.607758,234.568161 154.519669,233.959198 150.547028,233.949066 
	C150.461761,229.262863 150.376495,224.576645 150.385559,219.442780 
z"/>
<path fill="#0C60F3" opacity="1.000000" stroke="none" 
	d="
M145.215332,286.266785 
	C146.703659,280.808899 149.840515,280.223602 154.335388,282.293610 
	C155.283417,282.730164 156.851532,281.908173 158.108414,281.570984 
	C163.965927,279.999603 165.297394,280.817535 166.446152,286.825165 
	C166.787659,288.611145 167.047821,290.412628 167.474243,292.559509 
	C166.418304,293.533997 165.292145,294.455200 164.033600,294.702393 
	C162.457077,295.012054 160.719635,294.501221 159.142532,294.809448 
	C151.979172,296.209412 147.844193,292.666199 145.215332,286.266785 
z"/>
<path fill="#3449E2" opacity="1.000000" stroke="none" 
	d="
M319.915009,279.093170 
	C318.792664,278.536285 317.670349,277.979401 316.226044,276.842255 
	C314.758087,273.503143 313.753204,270.674713 312.434631,268.000977 
	C310.186432,263.442078 305.661682,263.507935 302.104919,264.746002 
	C300.503906,265.303314 299.812286,269.567230 299.455688,272.248749 
	C299.184967,274.284119 300.096649,276.476715 300.430298,278.643860 
	C300.378387,278.688324 300.277893,278.781006 300.277893,278.781006 
	C294.800171,270.690063 296.012482,261.909424 297.944397,253.168121 
	C299.409180,254.101379 300.606842,255.738312 301.699707,255.671127 
	C306.652344,255.366669 311.575409,254.581238 316.373352,254.303162 
	C312.830200,263.423859 313.670288,271.407684 320.499298,278.440277 
	C320.174438,278.802795 320.044708,278.947998 319.915009,279.093170 
z"/>
<path fill="#2A57EE" opacity="1.000000" stroke="none" 
	d="
M96.178329,294.381012 
	C91.961426,292.567841 95.002785,288.392639 93.392105,285.613434 
	C92.684059,284.391693 93.299751,282.402771 93.548195,280.014374 
	C93.996887,278.166077 94.211792,277.065582 94.565964,275.668213 
	C96.610535,273.989197 98.332184,272.037537 100.461731,271.350830 
	C104.184387,270.150391 108.157761,269.727478 112.026085,268.978760 
	C112.320045,276.344421 112.614006,283.710083 112.654579,291.164093 
	C112.242310,288.942047 112.331070,286.575317 111.823311,284.344330 
	C111.557068,283.174500 110.384911,281.507904 109.383614,281.317352 
	C99.709343,279.475830 96.011559,282.932159 96.556648,292.958130 
	C96.581993,293.424194 96.311195,293.906342 96.178329,294.381012 
z"/>
<path fill="#0C60F3" opacity="1.000000" stroke="none" 
	d="
M401.858398,244.231308 
	C401.605682,252.719391 401.352997,261.207458 401.119324,270.651733 
	C401.397491,277.392395 401.656708,283.176819 401.943542,289.289368 
	C402.246246,290.452148 402.521332,291.286835 402.796387,292.121552 
	C404.021515,290.917755 404.372711,289.735443 404.307251,288.576660 
	C403.873016,280.889862 405.256104,279.645599 412.594940,281.998474 
	C414.118988,282.487091 415.661560,284.266449 416.307983,285.820221 
	C417.222351,288.018005 417.311646,290.559082 417.753601,292.953430 
	C417.753601,292.953430 417.832214,293.010376 417.856964,293.048553 
	C416.160004,293.624664 414.460693,294.517090 412.711945,294.627563 
	C408.949341,294.865295 405.161316,294.700562 400.751770,294.700562 
	C400.751770,274.715057 400.751770,255.207123 400.917694,235.440826 
	C401.083618,235.182480 401.185150,235.072174 401.121155,235.423950 
	C401.324249,238.594238 401.591309,241.412781 401.858398,244.231308 
z"/>
<path fill="#0C60F3" opacity="1.000000" stroke="none" 
	d="
M256.070282,284.956848 
	C256.211792,287.745148 256.353302,290.533447 256.669556,293.595459 
	C251.377472,294.244568 245.910660,294.619934 239.915436,295.031586 
	C239.915436,284.844391 239.917603,275.593719 239.914963,266.343079 
	C239.909912,248.590897 239.892303,230.838684 239.915817,213.086548 
	C239.917526,211.795547 240.209641,210.504944 240.679596,209.136963 
	C240.992462,209.059769 241.052139,209.031067 240.919769,209.067123 
	C240.787415,209.103180 240.569519,209.269913 240.463043,209.272766 
	C240.356552,209.275620 240.284897,209.651199 240.208008,210.106003 
	C240.385513,214.124039 240.639893,217.687256 240.811844,221.601944 
	C240.729996,222.938492 240.730576,223.923584 240.505981,225.231461 
	C240.263245,227.409744 240.245667,229.265228 240.179962,231.569046 
	C240.219833,235.327637 240.307816,238.637924 240.317719,242.330566 
	C240.243668,243.491165 240.247696,244.269379 240.135529,245.488983 
	C240.095078,251.546677 240.170822,257.162994 240.246567,262.779297 
	C240.246567,272.586273 240.246567,282.393250 240.246567,292.200226 
	C240.372772,292.218628 240.498993,292.237030 240.625198,292.255432 
	C240.969421,290.701538 241.313644,289.147644 242.139008,287.194458 
	C246.727753,283.432983 251.535767,285.195435 256.070282,284.956848 
z"/>
<path fill="#4B52F6" opacity="1.000000" stroke="none" 
	d="
M240.251740,245.047592 
	C240.247696,244.269379 240.243668,243.491165 240.711914,242.331970 
	C246.342285,241.299927 251.500366,240.648849 256.658447,239.997787 
	C256.738281,244.358856 256.818146,248.719940 256.894653,253.545868 
	C256.641022,254.487152 256.390747,254.963593 255.751740,255.913071 
	C250.901276,256.582184 246.439499,256.778259 241.982376,256.521027 
	C241.408585,252.394363 240.830154,248.720978 240.251740,245.047592 
z"/>
<path fill="#604AF5" opacity="1.000000" stroke="none" 
	d="
M150.429932,234.369019 
	C154.519669,233.959198 158.607758,234.568161 162.436127,233.830032 
	C167.379547,232.876938 169.487289,234.363876 169.671051,239.562866 
	C169.784134,241.047348 169.726974,242.205902 169.447372,244.112915 
	C169.055267,246.635574 168.885590,248.409775 168.778870,249.525650 
	C167.612106,248.466064 166.275177,246.248383 165.019348,246.293411 
	C160.670181,246.449341 156.349258,247.392303 152.017578,248.035767 
	C151.694611,245.492401 151.371643,242.949066 150.758728,240.200653 
	C150.416809,238.260071 150.364822,236.524521 150.429932,234.369019 
z"/>
<path fill="#4549EB" opacity="1.000000" stroke="none" 
	d="
M372.176605,252.274429 
	C375.139496,251.198364 378.015930,250.527710 380.920532,250.017273 
	C385.782196,249.162872 388.513397,251.027893 388.640564,256.543976 
	C388.828125,261.936981 388.854828,266.994720 388.738159,272.490845 
	C388.594818,272.929199 388.418884,272.971497 388.331665,272.979034 
	C388.184967,272.331482 388.093781,271.677460 388.070862,271.021118 
	C387.763519,262.211884 384.710724,260.222992 376.394135,263.460938 
	C375.221741,263.917389 374.109833,264.529205 372.102814,265.479797 
	C372.102814,260.794067 372.102814,256.772949 372.176605,252.274429 
z"/>
<path fill="#4B52F6" opacity="1.000000" stroke="none" 
	d="
M152.014282,248.493256 
	C156.349258,247.392303 160.670181,246.449341 165.019348,246.293411 
	C166.275177,246.248383 167.612106,248.466064 168.778870,249.525650 
	C168.885590,248.409775 169.055267,246.635574 169.316086,244.527618 
	C169.239685,248.839828 169.072144,253.485809 168.824005,258.543335 
	C167.778519,258.385315 166.710388,257.205841 165.866135,257.348785 
	C161.563034,258.077301 157.317841,259.147705 152.010986,260.330597 
	C152.010986,256.377716 152.010986,252.664230 152.014282,248.493256 
z"/>
<path fill="#0C60F3" opacity="1.000000" stroke="none" 
	d="
M96.609032,294.524658 
	C96.311195,293.906342 96.581993,293.424194 96.556648,292.958130 
	C96.011559,282.932159 99.709343,279.475830 109.383614,281.317352 
	C110.384911,281.507904 111.557068,283.174500 111.823311,284.344330 
	C112.331070,286.575317 112.242310,288.942047 112.558670,291.623657 
	C110.963867,292.924469 109.280693,294.440613 107.444366,294.656982 
	C104.023216,295.060120 100.512924,294.706757 96.609032,294.524658 
z"/>
<path fill="#3855FB" opacity="1.000000" stroke="none" 
	d="
M112.012894,268.749817 
	C108.157761,269.727478 104.184387,270.150391 100.461731,271.350830 
	C98.332184,272.037537 96.610535,273.989197 94.499649,275.206726 
	C94.318184,271.279449 94.342308,267.516754 94.489120,263.554382 
	C94.749695,262.898590 94.887573,262.442505 95.031311,261.670349 
	C95.050804,260.934357 95.064430,260.514374 95.078064,260.094421 
	C95.078064,260.094421 95.533920,260.029724 96.049515,260.191772 
	C101.360435,259.909119 106.155769,259.464386 110.951103,259.019653 
	C111.085518,260.139557 111.219940,261.259491 111.544540,263.113953 
	C111.841667,265.254242 111.948608,266.659943 112.055557,268.065674 
	C112.055550,268.065674 111.999710,268.520905 112.012894,268.749817 
z"/>
<path fill="#7739F3" opacity="1.000000" stroke="none" 
	d="
M240.894272,221.250488 
	C240.639893,217.687256 240.385513,214.124039 240.303650,210.090668 
	C240.476166,209.620529 240.569519,209.269913 240.569519,209.269913 
	C240.569519,209.269913 240.787415,209.103180 241.382202,209.087830 
	C246.617447,209.060898 251.257889,209.049301 255.898346,209.037704 
	C256.195618,211.724472 256.492859,214.411240 256.358459,217.594543 
	C252.220917,221.172867 248.053909,222.200684 243.330551,221.056778 
	C242.578232,220.874573 241.709290,221.173828 240.894272,221.250488 
z"/>
<path fill="#604AF5" opacity="1.000000" stroke="none" 
	d="
M256.741241,239.545410 
	C251.500366,240.648849 246.342285,241.299927 240.790009,241.949585 
	C240.307816,238.637924 240.219833,235.327637 240.456848,231.545776 
	C241.148651,231.041992 241.515472,231.009811 242.265594,230.908966 
	C247.302277,230.217728 251.955673,229.595123 256.609070,228.972534 
	C256.680725,232.346024 256.752380,235.719528 256.741241,239.545410 
z"/>
<path fill="#4B52F6" opacity="1.000000" stroke="none" 
	d="
M316.509125,253.968918 
	C311.575409,254.581238 306.652344,255.366669 301.699707,255.671127 
	C300.606842,255.738312 299.409180,254.101379 298.193420,252.929718 
	C298.287384,251.939438 298.447693,251.268585 298.858337,250.111542 
	C299.108673,249.625366 299.059753,249.472549 299.059753,249.472549 
	C299.564728,248.459259 300.069702,247.445969 300.841736,246.217468 
	C308.156647,245.679977 315.204468,245.357727 322.449036,245.280579 
	C322.205322,246.432739 321.764771,247.339783 321.312347,248.235535 
	C321.300476,248.224243 321.283447,248.250580 320.926208,248.251526 
	C319.353851,249.780197 318.138794,251.307907 316.849762,253.129807 
	C316.686890,253.605637 316.598022,253.787277 316.509125,253.968918 
z"/>
<path fill="#4B52F6" opacity="1.000000" stroke="none" 
	d="
M148.841248,258.861542 
	C143.774200,257.742676 138.870926,257.734192 133.537918,259.322327 
	C131.653931,259.883392 128.194702,256.254242 125.919289,254.057022 
	C124.065460,252.266861 122.904350,249.759354 121.281746,247.276001 
	C121.625916,247.008240 122.262947,246.843491 122.601860,247.089493 
	C126.927948,250.229294 131.341461,251.440689 136.686981,249.317017 
	C138.125244,248.745621 140.522766,250.588806 142.748047,251.193649 
	C144.933105,253.548370 146.850067,256.033020 148.841248,258.861542 
z"/>
<path fill="#604AF5" opacity="1.000000" stroke="none" 
	d="
M286.848694,243.927002 
	C281.555969,244.206528 276.263245,244.486053 270.733978,244.778076 
	C274.079376,234.289978 285.881775,229.739090 292.759216,235.676102 
	C292.244751,237.039276 291.725220,238.400406 291.416779,239.878815 
	C291.588593,240.234406 291.549347,240.472717 291.344604,240.991241 
	C291.179047,241.271454 291.268982,241.236649 291.268982,241.236649 
	C291.076477,241.338547 290.883972,241.440445 290.203430,241.634918 
	C289.470001,241.735428 289.227234,241.765091 288.751099,241.746857 
	C288.000488,242.408508 287.485840,243.139771 286.938751,243.881104 
	C286.906342,243.891174 286.848694,243.927002 286.848694,243.927002 
z"/>
<path fill="#4B52F6" opacity="1.000000" stroke="none" 
	d="
M341.004578,247.007523 
	C341.832214,246.936310 342.865692,247.160324 343.455963,246.748718 
	C350.154205,242.078018 355.279816,246.181412 360.791321,249.821930 
	C361.872437,254.346146 362.692017,258.733154 363.171753,263.533142 
	C362.554596,263.964355 362.277039,263.978180 362.002747,263.562012 
	C361.909576,261.509583 362.169220,259.749695 361.624420,258.290070 
	C360.971680,256.541199 359.945892,254.300858 358.487823,253.689362 
	C357.385529,253.227097 355.351105,254.987411 353.731537,255.758575 
	C353.699219,255.594147 353.666870,255.429718 353.634552,255.265289 
	C351.387421,255.879974 349.140289,256.494659 346.702118,256.819885 
	C344.675598,253.356140 342.840088,250.181824 341.004578,247.007523 
z"/>
<path fill="#205CF8" opacity="1.000000" stroke="none" 
	d="
M358.177246,281.802368 
	C354.747528,282.076233 351.676208,282.187225 348.603912,282.232849 
	C347.650055,282.247040 346.693146,282.011322 345.738434,282.017334 
	C343.686188,282.030212 341.621094,282.001587 339.586029,282.220245 
	C337.230530,282.473328 334.901611,282.973785 332.553162,282.970459 
	C338.409393,280.456451 343.731781,277.602112 347.384705,271.962799 
	C351.151184,271.730713 354.526917,271.482544 358.932037,271.158722 
	C358.932037,274.082458 358.932037,277.495972 358.932037,280.909485 
	C358.799744,281.144409 358.667480,281.379333 358.177246,281.802368 
z"/>
<path fill="#3449E2" opacity="1.000000" stroke="none" 
	d="
M94.366440,263.754059 
	C94.342308,267.516754 94.318184,271.279449 94.360382,275.503601 
	C94.211792,277.065582 93.996887,278.166077 93.643082,279.570984 
	C93.457176,255.235046 93.409019,230.594742 93.364685,205.954422 
	C93.359596,203.123260 93.542191,200.280396 93.344734,197.463501 
	C93.014313,192.749756 94.942390,191.431671 99.253510,193.421265 
	C92.770546,192.121506 95.133148,197.422485 95.054626,199.830917 
	C94.861595,205.751480 95.446884,211.697113 95.707825,217.633163 
	C95.744110,218.458588 95.716591,219.286804 95.711304,220.589996 
	C95.459694,226.398666 95.215385,231.731049 94.998985,237.528198 
	C94.913666,245.110687 94.800438,252.228409 94.882637,259.720276 
	C95.064430,260.514374 95.050804,260.934357 94.887573,261.868774 
	C94.614136,262.840179 94.490295,263.297119 94.366440,263.754059 
z"/>
<path fill="#7049FA" opacity="1.000000" stroke="none" 
	d="
M256.694244,228.523682 
	C251.955673,229.595123 247.302277,230.217728 242.279663,230.505219 
	C241.517349,228.416290 241.124252,226.662491 240.731140,224.908676 
	C240.730576,223.923584 240.729996,222.938492 240.811844,221.601944 
	C241.709290,221.173828 242.578232,220.874573 243.330551,221.056778 
	C248.053909,222.200684 252.220917,221.172867 256.264038,218.048645 
	C256.660675,221.362442 256.720032,224.718658 256.694244,228.523682 
z"/>
<path fill="#4B52F6" opacity="1.000000" stroke="none" 
	d="
M218.962631,258.961700 
	C217.846756,256.053101 216.730896,253.144501 215.188232,249.953583 
	C214.761429,249.671265 214.817108,249.306290 214.817108,249.306290 
	C215.154373,248.434982 215.491653,247.563675 215.903107,246.349731 
	C216.442291,246.006088 216.907288,246.005066 217.998093,246.216522 
	C221.737030,247.275208 224.850159,248.121429 227.963303,248.967651 
	C228.666168,249.258804 229.369019,249.549957 230.348190,249.912598 
	C231.348160,253.076950 232.071808,256.169830 232.761597,259.680084 
	C232.268906,260.298340 231.810059,260.499237 230.855194,260.825562 
	C227.753052,256.062927 223.920822,257.057098 219.929016,258.764618 
	C219.632965,258.891235 219.285950,258.898804 218.962631,258.961700 
z"/>
<path fill="#2A57EE" opacity="1.000000" stroke="none" 
	d="
M359.130188,280.721497 
	C358.932037,277.495972 358.932037,274.082458 358.932037,271.158722 
	C354.526917,271.482544 351.151184,271.730713 347.386017,271.576263 
	C347.322205,269.139801 347.647858,267.105896 348.401672,265.057617 
	C353.219635,264.691345 357.609467,264.339447 361.999298,263.987549 
	C362.277039,263.978180 362.554596,263.964355 363.040405,263.947052 
	C361.942017,269.476501 360.635193,275.005005 359.130188,280.721497 
z"/>
<path fill="#3449E2" opacity="1.000000" stroke="none" 
	d="
M305.544983,286.264771 
	C310.316803,288.244019 315.033752,291.062103 320.133362,292.655609 
	C330.290558,295.829498 340.110596,294.591888 349.114502,288.555420 
	C351.318115,287.078033 353.561340,285.659698 356.072510,284.116028 
	C352.393616,289.752319 346.587555,292.971466 340.093597,294.352509 
	C327.558685,297.018341 315.654022,295.691498 305.544983,286.264771 
z"/>
<path fill="#2A57EE" opacity="1.000000" stroke="none" 
	d="
M112.402710,267.809509 
	C111.948608,266.659943 111.841667,265.254242 111.654182,263.433899 
	C111.747826,255.333603 111.922012,247.647919 112.194702,239.592255 
	C112.445427,248.665970 112.597649,258.109650 112.402710,267.809509 
z"/>
<path fill="#3449E2" opacity="1.000000" stroke="none" 
	d="
M297.994568,294.384094 
	C296.236908,292.045441 294.697693,289.837891 293.113464,287.289917 
	C295.306824,289.115417 299.076324,290.240173 297.994568,294.384094 
z"/>
<path fill="#7739F3" opacity="1.000000" stroke="none" 
	d="
M170.149475,239.153580 
	C170.003616,233.036575 170.033066,226.600906 170.112457,219.805450 
	C170.216537,225.908737 170.270660,232.371841 170.149475,239.153580 
z"/>
<path fill="#0C60F3" opacity="1.000000" stroke="none" 
	d="
M257.342957,291.256042 
	C257.239471,285.849701 257.249481,280.009094 257.268036,273.796570 
	C257.336548,279.223724 257.396515,285.022736 257.342957,291.256042 
z"/>
<path fill="#4549EB" opacity="1.000000" stroke="none" 
	d="
M255.627380,208.873688 
	C251.257889,209.049301 246.617447,209.060898 241.514557,209.051773 
	C241.052139,209.031067 240.992462,209.059769 240.963516,209.043808 
	C245.741852,208.921799 250.549118,208.815735 255.627380,208.873688 
z"/>
<path fill="#3449E2" opacity="1.000000" stroke="none" 
	d="
M302.911499,280.067139 
	C303.267761,281.345581 303.624023,282.624023 304.000488,284.227173 
	C302.806396,282.852966 301.592133,281.154053 300.327881,279.118073 
	C300.277893,278.781006 300.378387,278.688324 300.669708,278.791595 
	C301.611176,279.285614 302.261322,279.676361 302.911499,280.067139 
z"/>
<path fill="#3449E2" opacity="1.000000" stroke="none" 
	d="
M288.987091,241.816467 
	C289.227234,241.765091 289.470001,241.735428 289.898071,241.750977 
	C288.885986,243.305145 287.691284,244.835861 286.206665,246.421906 
	C286.168579,245.799759 286.420410,245.122269 286.760468,244.185883 
	C286.848694,243.927002 286.906342,243.891174 287.193420,243.737579 
	C287.982697,242.994827 288.484894,242.405640 288.987091,241.816467 
z"/>
<path fill="#3449E2" opacity="1.000000" stroke="none" 
	d="
M268.349792,279.875336 
	C268.349792,279.875336 268.237030,280.279083 268.156891,280.472351 
	C267.089325,279.633240 266.101929,278.600800 265.098450,277.251892 
	C265.082428,276.935394 265.215729,276.815369 265.550842,276.921295 
	C266.707245,277.976593 267.528503,278.925964 268.349792,279.875336 
z"/>
<path fill="#2A57EE" opacity="1.000000" stroke="none" 
	d="
M374.325348,320.010010 
	C375.159790,319.466095 376.237823,318.964142 377.561096,318.537781 
	C376.727234,319.092896 375.648102,319.572418 374.325348,320.010010 
z"/>
<path fill="#7739F3" opacity="1.000000" stroke="none" 
	d="
M125.536896,223.790131 
	C124.883644,223.150833 124.194672,222.224060 123.578644,220.993622 
	C124.268112,221.627518 124.884644,222.565094 125.536896,223.790131 
z"/>
<path fill="#3449E2" opacity="1.000000" stroke="none" 
	d="
M283.492432,249.198776 
	C283.767120,248.532257 284.316956,247.771362 285.164124,246.950027 
	C284.896790,247.627853 284.332153,248.366119 283.492432,249.198776 
z"/>
<path fill="#3449E2" opacity="1.000000" stroke="none" 
	d="
M101.300407,195.618530 
	C101.026352,195.515625 100.739296,195.239609 100.390182,194.841949 
	C100.647896,194.962006 100.967659,195.203720 101.300407,195.618530 
z"/>
<path fill="#0C60F3" opacity="1.000000" stroke="none" 
	d="
M142.972855,282.689392 
	C143.075867,282.662109 142.913696,282.673706 142.897430,282.640076 
	C142.881180,282.606415 143.017654,282.813019 143.017654,282.813019 
	C143.017654,282.813019 142.869843,282.716705 142.972855,282.689392 
z"/>
<path fill="#2A57EE" opacity="1.000000" stroke="none" 
	d="
M184.952545,287.005035 
	C184.965134,287.368958 184.977722,287.732849 184.985565,288.367981 
	C184.609482,288.338867 184.238144,288.038544 183.785980,287.505157 
	C183.705185,287.272125 183.898132,287.071503 184.209259,287.006042 
	C184.520386,286.940582 184.952560,287.005035 184.952545,287.005035 
z"/>
<path fill="#2A57EE" opacity="1.000000" stroke="none" 
	d="
M370.553528,320.492737 
	C370.606964,320.294586 370.853973,320.250305 371.301117,320.257782 
	C371.325470,320.567688 371.074066,320.680054 370.553528,320.492737 
z"/>
<path fill="#2A57EE" opacity="1.000000" stroke="none" 
	d="
M226.176254,290.723022 
	C226.077652,290.520996 226.231659,290.331604 226.561920,290.055206 
	C226.810699,290.282501 226.707581,290.538361 226.176254,290.723022 
z"/>
<path fill="#2A57EE" opacity="1.000000" stroke="none" 
	d="
M226.983231,289.411102 
	C227.011398,289.383667 227.040848,289.497223 227.036621,289.524780 
	C227.032379,289.552338 226.955063,289.438538 226.983231,289.411102 
z"/>
<path fill="#7739F3" opacity="1.000000" stroke="none" 
	d="
M170.778259,216.691620 
	C170.574066,216.633759 170.527069,216.364090 170.607269,215.877792 
	C170.841568,215.918808 170.908585,216.191681 170.778259,216.691620 
z"/>
<path fill="#3449E2" opacity="1.000000" stroke="none" 
	d="
M304.488037,285.211243 
	C304.513275,285.076141 304.842926,285.319214 304.884216,285.413025 
	C304.925507,285.506866 304.653595,285.543121 304.653595,285.543121 
	C304.653595,285.543121 304.462830,285.346344 304.488037,285.211243 
z"/>
<path fill="#0C60F3" opacity="1.000000" stroke="none" 
	d="
M143.977112,284.276184 
	C143.914398,284.337769 143.849487,284.213776 143.817200,284.198059 
	C143.784927,284.182343 144.039841,284.214569 143.977112,284.276184 
z"/>
<path fill="#3449E2" opacity="1.000000" stroke="none" 
	d="
M291.241455,241.155212 
	C291.268982,241.236649 291.179047,241.271454 291.175598,241.311691 
	C291.172150,241.351929 291.213898,241.073776 291.241455,241.155212 
z"/>
<path fill="#604AF5" opacity="1.000000" stroke="none" 
	d="
M131.468155,232.860992 
	C131.324982,232.886642 131.202682,232.728882 131.039169,232.419128 
	C131.217743,232.327744 131.381424,232.464554 131.468155,232.860992 
z"/>
<path fill="#604AF5" opacity="1.000000" stroke="none" 
	d="
M132.129364,233.724747 
	C132.037476,233.744507 131.984024,233.680161 131.982635,233.658447 
	C131.981232,233.636719 132.221237,233.704987 132.129364,233.724747 
z"/>
<path fill="#3449E2" opacity="1.000000" stroke="none" 
	d="
M298.963348,249.452667 
	C299.059753,249.472549 299.108673,249.625366 299.063293,249.636169 
	C299.017914,249.646957 298.866943,249.432785 298.963348,249.452667 
z"/>
<path fill="#4549EB" opacity="1.000000" stroke="none" 
	d="
M150.977142,209.662552 
	C150.977539,209.712296 150.957687,209.628403 150.979080,209.617416 
	C151.000473,209.606430 150.976761,209.612808 150.977142,209.662552 
z"/>
<path fill="#3449E2" opacity="1.000000" stroke="none" 
	d="
M347.973511,265.072021 
	C347.647858,267.105896 347.322205,269.139801 346.995239,271.560211 
	C343.731781,277.602112 338.409393,280.456451 332.249451,282.768555 
	C327.764069,282.887329 323.346405,283.637054 320.066040,279.407471 
	C320.044708,278.947998 320.174438,278.802795 320.826263,278.618256 
	C324.878998,279.254730 328.572571,280.936768 331.906433,280.396973 
	C338.849792,279.272797 343.380981,274.684204 344.787964,267.603912 
	C346.197388,260.511383 345.284271,253.974030 339.174561,249.138626 
	C333.466217,244.620880 327.387177,246.309799 321.324219,248.246826 
	C321.764771,247.339783 322.205322,246.432739 322.869507,245.297318 
	C329.064575,243.213150 334.792908,244.078232 340.688416,246.809845 
	C342.840088,250.181824 344.675598,253.356140 346.761047,257.206360 
	C347.331848,260.278870 347.652679,262.675446 347.973511,265.072021 
z"/>
<path fill="#205CF8" opacity="1.000000" stroke="none" 
	d="
M303.199402,279.913849 
	C302.261322,279.676361 301.611176,279.285614 300.721619,278.747131 
	C300.096649,276.476715 299.184967,274.284119 299.455688,272.248749 
	C299.812286,269.567230 300.503906,265.303314 302.104919,264.746002 
	C305.661682,263.507935 310.186432,263.442078 312.434631,268.000977 
	C313.753204,270.674713 314.758087,273.503143 315.996155,276.615845 
	C313.903015,277.505463 311.725952,278.077972 309.530121,278.566223 
	C307.526428,279.011780 305.502411,279.366028 303.199402,279.913849 
z"/>
<path fill="#4B52F6" opacity="1.000000" stroke="none" 
	d="
M110.972885,258.582031 
	C106.155769,259.464386 101.360435,259.909119 96.277893,260.162842 
	C95.955070,250.145676 98.537888,247.897736 108.173073,249.763779 
	C109.216980,249.965942 110.417137,251.569046 110.743057,252.744614 
	C111.212448,254.437653 110.946686,256.334534 110.972885,258.582031 
z"/>
<path fill="#4549EB" opacity="1.000000" stroke="none" 
	d="
M227.869659,248.627609 
	C224.850159,248.121429 221.737030,247.275208 218.346558,246.220398 
	C221.854111,244.427612 225.288849,244.336777 227.869659,248.627609 
z"/>
<path fill="#3855FB" opacity="1.000000" stroke="none" 
	d="
M218.582520,259.125671 
	C219.285950,258.898804 219.632965,258.891235 219.929016,258.764618 
	C223.920822,257.057098 227.753052,256.062927 230.669708,261.000671 
	C229.447678,265.487885 226.577530,266.316864 221.835663,266.290894 
	C212.138687,266.237854 202.429550,267.496460 192.734833,268.325012 
	C187.793381,268.747406 182.872330,269.408356 177.523193,269.937195 
	C177.057175,268.583466 177.045609,267.251648 176.956924,265.924957 
	C176.450378,258.347260 180.038330,255.431442 187.194427,257.924133 
	C197.425247,261.487854 207.818085,259.978424 218.582520,259.125671 
z"/>
<path fill="#205CF8" opacity="1.000000" stroke="none" 
	d="
M185.332977,286.966827 
	C184.952560,287.005035 184.520386,286.940582 184.305115,286.905151 
	C182.901123,284.046051 181.712402,281.222351 180.595764,278.569916 
	C188.061127,275.896240 193.367477,277.268188 197.784531,282.737457 
	C193.923950,284.285919 189.818680,285.607269 185.332977,286.966827 
z"/>
<path fill="#000000" opacity="1.000000" stroke="none" 
	d="
M214.504150,249.142303 
	C214.817108,249.306290 214.761429,249.671265 214.859924,249.827148 
	C215.335434,251.473404 215.712448,252.963791 216.178329,255.228165 
	C215.456696,256.427948 214.645752,257.222504 213.835770,257.221527 
	C206.900864,257.213226 199.966125,257.060791 193.031342,256.951447 
	C194.809601,247.438477 198.667328,243.702225 206.654648,244.825333 
	C209.309006,245.198563 211.686905,247.537857 214.504150,249.142303 
z"/>
<path fill="#3449E2" opacity="1.000000" stroke="none" 
	d="
M193.363953,257.195190 
	C199.966125,257.060791 206.900864,257.213226 213.835770,257.221527 
	C214.645752,257.222504 215.456696,256.427948 216.371552,255.566376 
	C215.747238,256.081848 215.022537,257.853241 214.289215,257.856781 
	C207.425842,257.890228 200.560989,257.620789 193.363953,257.195190 
z"/>
<path fill="#3855FB" opacity="1.000000" stroke="none" 
	d="
M241.977737,256.974304 
	C246.439499,256.778259 250.901276,256.582184 255.697952,256.179810 
	C257.794556,256.085052 260.138702,256.975708 261.215240,256.170868 
	C265.465912,252.992813 269.829346,253.281265 274.787781,254.837891 
	C273.854614,257.454987 272.656342,259.908691 271.262665,262.245911 
	C270.919800,262.820892 269.539185,263.500793 269.312744,263.313568 
	C265.599518,260.243317 262.159149,263.612427 258.620087,263.744324 
	C253.417831,263.938171 248.239456,264.739319 243.041473,265.167328 
	C242.749237,265.191376 242.371597,264.178345 242.006210,262.896240 
	C241.978394,260.421051 241.978058,258.697693 241.977737,256.974304 
z"/>
<path fill="#205CF8" opacity="1.000000" stroke="none" 
	d="
M256.076477,284.493164 
	C251.535767,285.195435 246.727753,283.432983 242.267090,286.856964 
	C241.943649,282.756531 241.855255,278.589417 242.029037,274.433258 
	C242.330627,267.220612 249.168823,265.903198 254.122375,267.431885 
	C255.039368,267.714874 255.864700,269.767426 255.936508,271.047882 
	C256.178619,275.364227 256.062073,279.700714 256.076477,284.493164 
z"/>
<path fill="#205CF8" opacity="1.000000" stroke="none" 
	d="
M268.679169,279.823181 
	C267.528503,278.925964 266.707245,277.976593 265.618134,276.862000 
	C265.329956,274.713135 265.309631,272.729431 265.289276,270.745758 
	C267.323914,270.788269 269.394836,270.602783 271.385895,270.919434 
	C275.925964,271.641510 280.401550,272.653717 282.855103,277.673553 
	C278.637787,280.777069 273.725555,279.519379 268.679169,279.823181 
z"/>
<path fill="#4549EB" opacity="1.000000" stroke="none" 
	d="
M241.982376,256.521027 
	C241.978058,258.697693 241.978394,260.421051 241.967712,262.574341 
	C241.575516,262.963593 241.194321,262.922913 240.529846,262.830780 
	C240.170822,257.162994 240.095078,251.546677 240.135529,245.488983 
	C240.830154,248.720978 241.408585,252.394363 241.982376,256.521027 
z"/>
<path fill="#205CF8" opacity="1.000000" stroke="none" 
	d="
M283.885437,278.830017 
	C283.769165,278.830536 283.533264,278.609131 283.169159,278.174194 
	C283.293823,278.162689 283.535461,278.378510 283.885437,278.830017 
z"/>
<path fill="#3855FB" opacity="1.000000" stroke="none" 
	d="
M166.936096,272.527374 
	C159.080429,269.755829 151.365005,272.573853 143.611511,273.344635 
	C141.816177,273.523102 140.016815,273.661255 137.833145,273.731293 
	C136.064972,270.527496 134.682953,267.410370 133.214157,264.097534 
	C141.248825,265.552551 148.792862,265.099579 156.437393,263.402405 
	C159.308945,262.764893 163.113388,263.297638 165.537125,264.818970 
	C166.976334,265.722351 166.553223,269.592651 166.936096,272.527374 
z"/>
<path fill="#4B52F6" opacity="1.000000" stroke="none" 
	d="
M149.486847,261.497437 
	C149.510803,261.488251 149.462875,261.506653 149.486847,261.497437 
z"/>
<path fill="#3855FB" opacity="1.000000" stroke="none" 
	d="
M401.915955,288.961273 
	C401.656708,283.176819 401.397491,277.392395 401.149109,271.092896 
	C401.764313,267.012695 402.084991,263.365723 403.080536,259.913330 
	C403.669250,257.871796 405.542633,254.445694 406.462555,254.564011 
	C410.093933,255.031036 415.674469,252.206268 416.796875,258.381561 
	C417.735931,263.548248 417.696838,268.897064 418.015625,274.169800 
	C418.125641,275.989166 418.008911,277.822266 417.752625,279.814453 
	C417.143494,277.904297 416.777435,275.828827 416.421234,273.809113 
	C413.800201,273.554840 411.511017,273.402039 409.242249,273.097168 
	C405.381378,272.578369 403.201965,273.923004 402.972961,278.075531 
	C402.772369,281.712463 402.279602,285.333313 401.915955,288.961273 
z"/>
<path fill="#205CF8" opacity="1.000000" stroke="none" 
	d="
M401.943573,289.289368 
	C402.279602,285.333313 402.772369,281.712463 402.972961,278.075531 
	C403.201965,273.923004 405.381378,272.578369 409.242249,273.097168 
	C411.511017,273.402039 413.800201,273.554840 416.421234,273.809113 
	C416.777435,275.828827 417.143494,277.904297 417.728088,280.252686 
	C417.963440,284.443817 417.980225,288.362091 417.875305,292.616882 
	C417.311646,290.559082 417.222351,288.018005 416.307983,285.820221 
	C415.661560,284.266449 414.118988,282.487091 412.594940,281.998474 
	C405.256104,279.645599 403.873016,280.889862 404.307251,288.576660 
	C404.372711,289.735443 404.021515,290.917755 402.796387,292.121552 
	C402.521332,291.286835 402.246246,290.452148 401.943573,289.289368 
z"/>
<path fill="#604AF5" opacity="1.000000" stroke="none" 
	d="
M402.288300,244.171555 
	C401.591309,241.412781 401.324249,238.594238 401.146667,235.353485 
	C405.209167,234.958282 409.217316,234.691116 413.137634,235.159241 
	C414.675507,235.342865 417.176697,237.174026 417.176178,238.253876 
	C417.175385,239.883072 415.635315,242.592422 414.272827,242.932373 
	C410.554688,243.860123 406.587006,243.787888 402.288300,244.171555 
z"/>
<path fill="#000000" opacity="1.000000" stroke="none" 
	d="
M321.312347,248.235535 
	C327.387177,246.309799 333.466217,244.620880 339.174561,249.138626 
	C345.284271,253.974030 346.197388,260.511383 344.787964,267.603912 
	C343.380981,274.684204 338.849792,279.272797 331.906433,280.396973 
	C328.572571,280.936768 324.878998,279.254730 321.021362,278.400909 
	C313.670288,271.407684 312.830200,263.423859 316.373352,254.303162 
	C316.598022,253.787277 316.686890,253.605637 317.143555,252.998047 
	C318.768738,251.131607 320.026093,249.691101 321.283447,248.250580 
	C321.283447,248.250580 321.300476,248.224243 321.312347,248.235535 
z"/>
<path fill="#4549EB" opacity="1.000000" stroke="none" 
	d="
M240.505981,225.231461 
	C241.124252,226.662491 241.517349,228.416290 241.896362,230.573868 
	C241.515472,231.009811 241.148651,231.041992 240.504959,231.097458 
	C240.245667,229.265228 240.263245,227.409744 240.505981,225.231461 
z"/>
<path fill="#4549EB" opacity="1.000000" stroke="none" 
	d="
M240.463043,209.272766 
	C240.569519,209.269913 240.476166,209.620529 240.380524,209.635864 
	C240.284897,209.651199 240.356552,209.275620 240.463043,209.272766 
z"/>
<path fill="#604AF5" opacity="1.000000" stroke="none" 
	d="
M94.489128,263.554382 
	C94.490295,263.297119 94.614136,262.840179 94.881721,262.184814 
	C94.887573,262.442505 94.749695,262.898590 94.489128,263.554382 
z"/>
<path fill="#3449E2" opacity="1.000000" stroke="none" 
	d="
M320.926208,248.251526 
	C320.026093,249.691101 318.768738,251.131607 317.217529,252.703857 
	C318.138794,251.307907 319.353851,249.780197 320.926208,248.251526 
z"/>
<path fill="#4549EB" opacity="1.000000" stroke="none" 
	d="
M288.751099,241.746857 
	C288.484894,242.405640 287.982697,242.994827 287.225830,243.727509 
	C287.485840,243.139771 288.000488,242.408508 288.751099,241.746857 
z"/>
<path fill="#3855FB" opacity="1.000000" stroke="none" 
	d="
M348.401642,265.057617 
	C347.652679,262.675446 347.331848,260.278870 346.952087,257.495819 
	C349.140289,256.494659 351.387421,255.879974 353.634552,255.265289 
	C353.666870,255.429718 353.699219,255.594147 353.731537,255.758575 
	C355.351105,254.987411 357.385529,253.227097 358.487823,253.689362 
	C359.945892,254.300858 360.971680,256.541199 361.624420,258.290070 
	C362.169220,259.749695 361.909576,261.509583 362.002747,263.562012 
	C357.609467,264.339447 353.219635,264.691345 348.401642,265.057617 
z"/>
</svg>