<?xml version="1.0" standalone="no"?>
<!DOCTYPE svg PUBLIC "-//W3C//DTD SVG 20010904//EN"
 "http://www.w3.org/TR/2001/REC-SVG-20010904/DTD/svg10.dtd">
<svg version="1.0" xmlns="http://www.w3.org/2000/svg"
 width="1024.000000pt" height="1024.000000pt" viewBox="0 0 1024.000000 1024.000000"
 preserveAspectRatio="xMidYMid meet">

<g transform="translate(0.000000,1024.000000) scale(0.100000,-0.100000)"
fill="#000000" stroke="none">
<path d="M3045 8139 c-102 -14 -251 -68 -328 -119 -78 -51 -180 -154 -212
-213 -11 -20 -23 -37 -26 -37 -4 0 -15 29 -24 65 -17 62 -17 127 2 194 l6 24
-33 -19 c-47 -28 -109 -101 -138 -163 -32 -69 -41 -177 -19 -238 l14 -41 -31
-6 c-16 -4 -69 -25 -116 -47 -150 -73 -267 -213 -319 -383 -12 -37 -21 -78
-21 -89 0 -19 4 -17 38 15 74 71 168 133 229 152 22 7 21 4 -12 -51 -71 -120
-101 -265 -75 -374 17 -73 82 -197 131 -250 39 -42 41 -43 55 -25 8 11 14 29
15 40 0 13 10 -1 25 -34 14 -30 37 -72 51 -93 22 -32 25 -44 20 -90 -8 -81
-24 -107 -84 -133 -50 -22 -53 -26 -53 -59 0 -48 19 -90 74 -164 34 -46 46
-72 46 -97 0 -37 20 -82 77 -172 43 -67 200 -279 214 -287 16 -11 10 -25 -15
-35 -20 -7 -159 -180 -206 -256 -11 -18 -20 -20 -60 -16 -53 5 -85 -9 -215
-93 -89 -57 -125 -95 -125 -131 0 -18 -9 -28 -37 -40 -87 -37 -78 -39 -126 34
-67 102 -91 154 -142 315 l-48 148 116 112 c104 101 121 122 156 198 49 105
65 177 59 264 -4 64 -6 70 -41 99 -32 26 -37 37 -37 72 0 50 -23 87 -127 201
-98 108 -117 114 -236 79 -48 -14 -126 -38 -174 -52 -95 -28 -115 -41 -133
-84 -8 -20 -21 -30 -45 -34 -44 -9 -73 -46 -81 -107 -5 -36 -13 -52 -31 -64
-37 -25 -45 -59 -44 -210 0 -155 30 -351 76 -491 14 -42 25 -96 25 -119 0 -71
76 -504 116 -658 82 -317 200 -551 301 -593 46 -20 137 -17 224 5 132 34 428
131 517 169 l87 37 46 -23 45 -22 88 25 c108 31 309 110 441 173 l99 48 105
-88 c117 -97 285 -202 404 -250 43 -18 75 -34 70 -35 -44 -14 -1169 -252
-1278 -271 -33 -6 -67 -13 -76 -16 -13 -6 -17 12 -28 116 -7 68 -14 124 -15
126 -2 1 -99 -18 -217 -42 -362 -76 -451 -93 -531 -106 l-76 -13 92 -80 93
-80 -34 -111 c-83 -264 -441 -1322 -537 -1584 -31 -84 -56 -154 -56 -155 0 -2
82 14 182 34 101 21 631 126 1178 234 547 108 1231 243 1520 300 289 57 746
147 1015 200 563 110 1451 287 2237 445 298 60 887 177 1308 260 421 83 782
156 803 161 32 9 37 14 37 39 0 17 11 137 25 268 14 130 50 478 80 772 30 294
57 550 60 568 3 17 2 32 -2 32 -19 0 -674 -123 -883 -165 -124 -25 -389 -81
-590 -125 -655 -141 -702 -151 -708 -146 -3 4 0 6 6 6 7 0 29 15 49 33 26 23
59 39 103 51 36 9 184 50 330 91 146 42 320 90 387 107 67 18 121 34 119 36
-2 2 -47 -6 -100 -17 -52 -12 -227 -43 -388 -71 -161 -27 -305 -52 -319 -56
l-27 -5 -5 88 c-3 48 -9 99 -12 113 l-6 25 293 74 c298 74 427 110 1013 276
182 52 400 112 485 135 85 23 160 43 165 46 22 9 -98 -11 -450 -72 -526 -93
-906 -158 -1160 -199 -121 -20 -271 -47 -333 -61 -62 -13 -117 -22 -122 -19
-5 3 -26 36 -46 73 -21 37 -47 81 -60 98 l-23 31 137 31 c75 17 207 47 292 67
85 19 317 72 515 117 477 107 652 150 588 143 -29 -3 -155 -19 -280 -35 -125
-17 -397 -51 -603 -76 -206 -25 -476 -58 -599 -73 l-224 -27 -36 30 c-69 58
-140 129 -135 137 2 4 -1 11 -7 15 -8 4 -9 3 -5 -4 15 -25 -7 -10 -94 62 -85
71 -88 75 -62 80 82 16 415 68 872 136 289 43 899 142 1213 196 114 20 211 33
214 30 4 -3 -3 -6 -14 -6 -11 0 -109 -23 -218 -50 -109 -28 -205 -48 -212 -45
-8 2 -12 1 -9 -4 3 -5 -261 -75 -587 -156 -669 -166 -955 -241 -977 -254 -9
-4 -30 -12 -48 -16 -18 -3 -32 -10 -32 -14 0 -5 57 9 128 31 122 38 1351 350
2252 572 122 30 117 29 -225 -30 -466 -80 -980 -163 -1510 -245 -286 -44 -604
-93 -707 -110 l-186 -31 -71 53 c-39 30 -71 56 -71 59 0 4 73 24 163 44 89 21
261 63 382 93 200 50 267 65 535 124 67 15 74 18 31 13 -29 -3 -103 -9 -165
-15 -61 -5 -169 -16 -241 -24 -71 -9 -249 -29 -395 -45 -146 -17 -316 -37
-378 -46 l-113 -15 -75 43 c-46 26 -69 45 -62 49 20 10 516 125 758 175 118
24 276 58 350 75 147 34 718 148 1117 225 139 26 251 49 249 51 -12 12 -1986
-225 -2686 -322 -96 -13 -274 -36 -395 -50 -121 -14 -229 -28 -240 -31 l-20
-4 20 10 c11 5 115 30 230 55 116 25 323 70 460 100 333 72 605 128 745 155
247 46 218 47 -255 5 -148 -13 -376 -33 -505 -44 -129 -12 -345 -32 -480 -46
-484 -50 -725 -73 -728 -70 -5 5 411 103 638 149 294 61 453 88 813 141 384
56 481 72 831 141 155 31 362 69 461 84 153 24 353 60 1020 180 55 10 91 18
80 19 -30 1 -425 -37 -1030 -99 -110 -11 -355 -36 -545 -55 -387 -39 -1137
-121 -1515 -164 -137 -16 -399 -46 -581 -67 l-330 -37 -62 24 c-62 24 -79 39
-44 39 10 0 149 29 310 64 160 36 384 83 499 105 114 22 217 42 228 45 37 9
-424 -17 -764 -44 -176 -14 -214 -12 -131 6 479 106 1326 238 1980 308 l125
14 -116 1 c-127 1 -573 -28 -904 -59 -227 -21 -872 -86 -944 -95 l-43 -5 34
43 c39 48 116 160 124 180 4 11 -24 15 -143 20 -172 7 -288 27 -370 64 -32 14
-93 41 -137 59 l-79 32 39 20 c79 40 167 159 189 253 l6 26 -72 -36 c-71 -35
-75 -36 -193 -36 -115 0 -130 2 -306 52 -102 29 -214 58 -250 64 -88 16 -262
14 -330 -4 -30 -9 -56 -14 -57 -13 -2 1 35 30 80 63 45 34 90 70 100 81 17 19
17 19 -20 26 -50 8 -173 6 -248 -5z m-428 -1258 l38 -44 -45 -36 c-24 -20 -77
-69 -118 -109 -59 -60 -71 -76 -61 -88 6 -8 17 -14 24 -14 14 0 125 74 190
125 76 61 70 61 206 -4 68 -33 165 -72 215 -87 l92 -28 11 -50 c20 -90 41
-220 41 -253 0 -18 3 -33 8 -33 32 0 134 99 194 190 66 97 94 127 133 140 90
30 185 -82 185 -217 0 -69 -27 -151 -63 -195 -28 -34 -127 -86 -178 -94 -22
-4 -39 -10 -39 -15 0 -4 11 -21 25 -37 17 -21 48 -37 107 -56 46 -15 105 -37
131 -49 45 -19 48 -22 43 -49 -3 -16 -22 -115 -43 -221 l-37 -192 -60 -95
c-96 -155 -151 -218 -199 -231 -51 -14 -91 -6 -139 28 l-38 26 0 84 0 84 68
-37 c37 -20 71 -41 77 -46 42 -38 -14 88 -71 159 -19 23 -34 46 -34 53 0 6 20
81 44 168 25 86 54 191 64 232 l20 75 -22 -30 c-39 -54 -130 -147 -205 -208
-85 -70 -191 -135 -345 -213 -145 -73 -161 -72 -233 16 -30 36 -101 137 -160
224 -86 131 -104 163 -95 177 9 13 1 32 -39 95 -27 44 -56 88 -64 100 -15 20
-13 22 25 48 27 18 49 45 70 86 39 77 40 157 5 285 -25 90 -32 217 -16 275 7
23 9 20 25 -27 17 -51 69 -133 84 -133 4 0 5 28 2 63 -9 83 4 189 30 260 l21
57 44 -57 c24 -32 61 -78 82 -102z m-996 -630 c63 -66 119 -156 119 -192 0 -9
-8 -19 -17 -22 -10 -2 -26 -8 -35 -12 -13 -5 -18 -2 -18 11 0 51 -23 96 -61
124 -37 27 -152 79 -209 95 -24 6 -24 6 5 -19 17 -15 62 -49 101 -76 62 -42
74 -56 88 -96 22 -66 21 -78 -19 -130 -37 -48 -39 -47 -49 19 -10 73 -85 137
-188 162 -39 10 -34 -5 12 -39 77 -57 97 -86 119 -170 25 -94 25 -114 6 -140
-18 -23 -17 -24 -40 39 -32 87 -129 165 -205 165 l-45 0 45 -26 c73 -43 108
-83 140 -160 16 -40 30 -75 30 -77 0 -3 -10 -8 -22 -12 -62 -18 -86 -21 -107
-13 -19 7 -23 14 -19 43 4 37 9 33 -88 72 -17 7 3 -118 24 -146 24 -33 64 -43
141 -36 l63 6 -4 -68 c-4 -79 -48 -181 -86 -199 -33 -16 -41 -27 -12 -19 112
32 155 85 171 206 11 88 21 120 47 153 15 20 20 21 47 10 52 -22 69 -17 122
39 47 50 85 104 66 96 -4 -2 -32 -17 -62 -32 -44 -24 -58 -27 -77 -18 -13 6
-24 16 -24 22 0 6 28 40 63 75 54 56 68 65 109 70 87 12 96 -26 42 -167 -55
-140 -163 -261 -290 -323 -40 -20 -54 -32 -50 -43 4 -8 34 -110 67 -227 57
-195 67 -220 130 -327 96 -161 138 -257 155 -352 24 -132 23 -130 38 -118 39
32 50 224 16 279 -11 18 -20 34 -20 37 0 9 198 65 229 65 18 0 45 -7 60 -15
37 -19 95 -91 85 -106 -4 -8 -3 -9 4 -5 7 4 22 -11 39 -36 27 -44 116 -238
111 -243 -8 -7 -230 -93 -353 -137 -310 -110 -418 -138 -467 -119 -15 6 -43
32 -62 58 -124 168 -234 508 -311 958 -18 110 -47 256 -63 325 -36 152 -38
160 -57 334 -9 77 -14 149 -11 160 4 12 21 30 39 41 26 17 34 30 42 73 10 50
13 55 60 80 41 22 52 34 59 65 8 33 15 38 50 47 23 6 75 21 116 34 124 39 134
37 211 -43z m4405 -82 c32 -12 86 -39 119 -59 109 -66 367 -269 515 -404 80
-73 198 -178 263 -235 66 -58 134 -127 156 -159 75 -112 170 -288 186 -348
l17 -60 -63 -61 c-35 -33 -79 -73 -97 -88 l-32 -27 10 27 c16 43 11 64 -7 30
-24 -46 -47 -71 -99 -115 -40 -33 -56 -40 -91 -40 -23 0 -44 4 -47 8 -3 5 9
25 26 46 l31 37 -43 44 c-45 46 -83 68 -135 79 -28 6 -29 5 -10 -8 11 -9 34
-30 52 -48 27 -28 30 -34 17 -41 -30 -17 -93 22 -119 73 l-24 47 34 101 c39
116 63 166 101 211 21 25 24 34 14 46 -34 41 -292 195 -570 340 -345 180 -321
169 -353 157 l-29 -11 6 37 c16 113 17 161 2 225 -17 72 -44 133 -82 184 l-24
32 32 4 c66 10 185 -2 244 -24z m-67 -605 c23 -20 76 -51 117 -69 l76 -33 -54
-12 c-54 -11 -78 -15 -568 -95 -157 -26 -311 -53 -342 -60 -50 -11 -57 -11
-63 3 -3 8 -2 18 2 22 22 18 412 132 503 148 l104 17 23 40 c14 26 36 46 60
57 60 27 94 23 142 -18z m659 -332 c51 -34 65 -52 40 -52 -38 0 -669 -95
-1097 -165 -118 -20 -216 -33 -218 -31 -12 11 418 130 802 221 110 26 238 57
285 70 95 24 81 27 188 -43z m-56 -404 c8 -24 18 -50 22 -59 5 -13 0 -18 -26
-22 -18 -3 -87 -18 -153 -32 -73 -16 -166 -28 -240 -31 -66 -3 -177 -16 -247
-30 -124 -24 -129 -24 -185 -8 l-58 17 155 33 c85 19 279 65 430 103 151 38
278 69 281 70 4 1 13 -18 21 -41z m-1037 -640 c-3 -18 -10 -73 -16 -123 -5
-49 -11 -90 -12 -92 -2 -1 -81 -16 -178 -34 l-175 -32 -17 -150 c-9 -83 -15
-152 -13 -154 2 -2 69 8 150 22 81 14 153 25 160 25 10 0 10 -20 0 -106 -7
-59 -16 -109 -19 -112 -3 -3 -76 -18 -162 -34 -85 -15 -157 -29 -158 -30 -4
-5 -46 -360 -43 -363 2 -2 84 12 183 31 98 18 180 32 181 31 1 -1 -6 -54 -15
-117 l-16 -114 -285 -58 c-157 -31 -294 -57 -305 -58 -25 0 -27 -36 26 440 22
195 53 486 70 645 17 160 34 293 37 296 4 3 117 27 252 53 135 26 261 51 280
56 19 4 45 8 58 9 20 1 22 -2 17 -31z m-749 -135 c-3 -16 -10 -84 -16 -153
-18 -204 -130 -1204 -136 -1210 -8 -7 -218 -49 -223 -44 -5 5 9 159 50 548 16
154 27 281 25 283 -1 2 -19 -43 -39 -99 -19 -57 -77 -222 -129 -368 l-94 -264
-82 -17 c-82 -16 -82 -16 -87 5 -2 12 -23 168 -47 349 -23 180 -45 327 -48
327 -3 0 -27 -194 -52 -431 -26 -238 -49 -434 -52 -436 -5 -5 -230 -52 -233
-49 -1 1 22 233 53 516 30 283 62 593 72 688 15 157 19 173 37 178 71 16 328
64 331 61 5 -5 74 -584 74 -621 0 -57 3 -49 166 429 47 138 88 256 92 261 5 8
229 57 335 73 5 0 6 -11 3 -26z m-1156 -227 c0 -8 -11 -110 -25 -227 -13 -118
-31 -288 -40 -379 -24 -248 -76 -745 -79 -747 -5 -5 -249 -53 -252 -50 -2 1 1
32 6 67 5 36 39 342 75 680 37 338 69 617 71 619 5 5 200 48 227 50 9 0 17 -5
17 -13z m-1497 -198 c9 -106 30 -332 46 -503 16 -170 42 -442 57 -602 15 -161
25 -295 23 -298 -8 -7 -301 -66 -306 -61 -3 3 -10 78 -15 168 -6 90 -12 164
-13 166 -6 7 -321 -51 -326 -60 -4 -6 -30 -88 -58 -182 -28 -94 -55 -178 -60
-186 -8 -16 -311 -82 -311 -68 0 5 54 170 121 366 67 196 194 578 284 847 162
486 163 490 142 502 -12 7 -30 12 -39 13 -30 0 -20 20 10 21 15 0 106 15 202
34 96 18 186 33 200 34 l26 1 17 -192z m1107 120 c0 -13 -48 -464 -96 -903
-13 -126 -30 -279 -36 -340 -6 -60 -12 -111 -13 -112 -3 -5 -240 -51 -243 -48
-2 2 -45 171 -96 377 -84 337 -93 369 -99 328 -4 -25 -21 -196 -37 -380 -27
-296 -37 -390 -43 -390 -1 0 -56 -11 -122 -24 -66 -14 -120 -24 -121 -23 -1 1
24 265 57 587 32 322 61 629 65 683 6 88 9 99 28 106 49 18 258 53 265 45 10
-10 161 -591 161 -617 0 -9 4 -17 8 -17 4 0 22 147 41 328 18 180 35 336 38
348 4 18 20 24 111 41 134 26 132 26 132 11z"/>
<path d="M2700 6699 c-55 -11 -113 -40 -202 -103 -68 -47 -82 -66 -52 -66 8 0
12 -5 9 -10 -13 -21 25 -21 55 0 30 21 30 21 30 1 0 -33 28 -132 45 -158 18
-27 46 -30 67 -5 27 29 29 57 13 133 -8 41 -15 75 -15 75 0 1 20 4 45 7 64 9
133 -2 138 -22 3 -9 5 -1 6 17 1 30 -3 35 -41 52 -24 11 -53 20 -65 20 -37 0
-27 14 30 42 l52 27 -35 -1 c-19 0 -55 -4 -80 -9z"/>
<path d="M3528 6483 c-28 -30 -74 -115 -80 -148 -2 -16 3 -20 22 -20 56 0 64
-30 25 -87 -14 -20 -25 -39 -25 -42 0 -8 71 25 92 42 20 17 33 71 24 99 -3 10
-17 30 -31 45 l-25 27 27 20 c32 26 31 26 76 -4 l37 -26 0 23 c0 25 -23 64
-50 85 -26 21 -65 15 -92 -14z"/>
<path d="M2479 5959 c-24 -17 -48 -35 -52 -39 -12 -10 26 -83 78 -150 23 -30
57 -83 75 -117 35 -68 49 -74 99 -48 41 21 131 123 131 148 0 38 -59 125 -113
168 -97 78 -149 87 -218 38z"/>
<path d="M1320 5330 c-12 -8 -11 -10 6 -10 27 0 62 -40 139 -158 33 -50 64
-92 69 -92 4 0 6 7 3 15 -4 8 -16 50 -28 95 -12 44 -24 78 -26 76 -3 -2 3 -32
13 -65 9 -34 15 -63 12 -66 -2 -2 -27 31 -55 74 -46 69 -105 141 -115 141 -1
0 -10 -5 -18 -10z"/>
<path d="M2231 4594 c0 -11 3 -14 6 -6 3 7 2 16 -1 19 -3 4 -6 -2 -5 -13z"/>
<path d="M2242 4527 c-2 -60 -21 -97 -85 -164 -27 -29 -46 -53 -42 -53 14 0
104 104 121 138 9 20 14 50 11 80 l-3 47 -2 -48z"/>
<path d="M2335 4390 c-3 -5 -1 -10 4 -10 6 0 11 5 11 10 0 6 -2 10 -4 10 -3 0
-8 -4 -11 -10z"/>
<path d="M2085 4300 c-4 -6 -27 -22 -53 -36 -51 -28 -41 -27 26 2 23 10 42 24
42 31 0 16 -7 17 -15 3z"/>
<path d="M5890 5580 c8 -5 20 -10 25 -10 6 0 3 5 -5 10 -8 5 -19 10 -25 10 -5
0 -3 -5 5 -10z"/>
<path d="M5810 5566 l-25 -14 26 1 c14 1 26 8 26 15 0 6 -1 12 -1 12 -1 -1
-12 -7 -26 -14z"/>
<path d="M5850 5576 c0 -2 7 -7 16 -10 8 -3 12 -2 9 4 -6 10 -25 14 -25 6z"/>
<path d="M5990 5516 c0 -3 9 -10 20 -16 11 -6 20 -8 20 -6 0 3 -9 10 -20 16
-11 6 -20 8 -20 6z"/>
<path d="M5757 5479 c7 -7 15 -10 18 -7 3 3 -2 9 -12 12 -14 6 -15 5 -6 -5z"/>
<path d="M5820 5475 c0 -7 30 -13 34 -7 3 4 -4 9 -15 9 -10 1 -19 0 -19 -2z"/>
<path d="M5675 5460 l-40 -7 37 -2 c20 0 40 4 43 9 3 6 5 9 3 9 -2 -1 -21 -5
-43 -9z"/>
<path d="M5580 5441 c0 -5 9 -7 20 -4 11 3 20 7 20 9 0 2 -9 4 -20 4 -11 0
-20 -4 -20 -9z"/>
<path d="M5968 5443 c6 -2 18 -2 25 0 6 3 1 5 -13 5 -14 0 -19 -2 -12 -5z"/>
<path d="M5540 5429 c0 -5 5 -7 10 -4 6 3 10 8 10 11 0 2 -4 4 -10 4 -5 0 -10
-5 -10 -11z"/>
<path d="M5463 5418 c-19 -7 -33 -18 -33 -27 0 -12 2 -13 9 -3 4 7 28 19 52
27 24 7 35 14 24 13 -11 0 -35 -5 -52 -10z"/>
<path d="M5768 5413 c6 -2 18 -2 25 0 6 3 1 5 -13 5 -14 0 -19 -2 -12 -5z"/>
<path d="M5390 5392 c1 -14 28 -43 34 -34 3 4 -4 16 -15 25 -10 9 -19 13 -19
9z"/>
<path d="M5510 5385 c-7 -8 -27 -16 -44 -16 -18 -1 -23 -3 -11 -5 11 -3 40 0
65 5 25 5 35 9 22 10 -13 1 -20 6 -17 11 9 15 -1 12 -15 -5z"/>
<path d="M5648 5393 c6 -2 18 -2 25 0 6 3 1 5 -13 5 -14 0 -19 -2 -12 -5z"/>
<path d="M5583 5383 c9 -2 23 -2 30 0 6 3 -1 5 -18 5 -16 0 -22 -2 -12 -5z"/>
<path d="M5305 5365 c-24 -12 -25 -13 -5 -8 14 4 33 7 43 7 9 0 17 4 17 8 0
12 -21 9 -55 -7z"/>
<path d="M5253 5335 c0 -8 4 -12 9 -9 4 3 8 9 8 15 0 5 -4 9 -8 9 -5 0 -9 -7
-9 -15z"/>
<path d="M5348 5343 c6 -2 18 -2 25 0 6 3 1 5 -13 5 -14 0 -19 -2 -12 -5z"/>
<path d="M5208 5333 c-10 -2 -18 -9 -18 -14 0 -6 7 -6 19 0 10 6 21 7 25 4 3
-3 6 -1 6 5 0 12 -3 13 -32 5z"/>
<path d="M5288 5333 c6 -2 18 -2 25 0 6 3 1 5 -13 5 -14 0 -19 -2 -12 -5z"/>
<path d="M5145 5310 c-3 -5 -2 -10 4 -10 5 0 13 5 16 10 3 6 2 10 -4 10 -5 0
-13 -4 -16 -10z"/>
<path d="M1868 3333 c-3 -16 -44 -156 -92 -312 -47 -156 -85 -286 -82 -288 5
-6 189 29 199 37 10 9 -3 590 -13 590 -4 0 -10 -12 -12 -27z"/>
<path d="M6615 5904 c6 -5 26 -23 45 -39 l35 -30 -25 28 c-14 16 -34 33 -45
39 -11 6 -15 6 -10 2z"/>
<path d="M8698 5833 c7 -3 16 -2 19 1 4 3 -2 6 -13 5 -11 0 -14 -3 -6 -6z"/>
</g>
</svg>
